<svg width="20" height="20" viewBox="0 0 20 20" fill="none" xmlns="http://www.w3.org/2000/svg">
<g clip-path="url(#clip0_1_149)">
<path d="M15.2084 6.33334L10.6251 3.68334C10.2417 3.45834 9.75841 3.45834 9.37508 3.68334L4.79175 6.33334C4.40841 6.55834 4.16675 6.96667 4.16675 7.41667V12.7083C4.16675 13.1583 4.40841 13.5667 4.79175 13.7917L9.37508 16.4417C9.75841 16.6667 10.2417 16.6667 10.6251 16.4417L15.2084 13.7917C15.5917 13.5667 15.8334 13.1583 15.8334 12.7083V7.41667C15.8334 6.96667 15.5917 6.55834 15.2084 6.33334ZM5.83341 12.4667V8.61667L9.16675 10.55V14.3917L5.83341 12.4667ZM10.0001 9.10834L6.66675 7.175L10.0001 5.25001L13.3334 7.175L10.0001 9.10834ZM10.8334 14.3917V10.55L14.1667 8.61667V12.4667L10.8334 14.3917ZM5.83341 1.66667H2.91675C2.22508 1.66667 1.66675 2.22501 1.66675 2.91667V5.83334H3.33341V3.33334H5.83341V1.66667ZM14.1667 1.66667H17.0834C17.7751 1.66667 18.3334 2.22501 18.3334 2.91667V5.83334H16.6667V3.33334H14.1667V1.66667ZM5.83341 18.3333H2.91675C2.22508 18.3333 1.66675 17.775 1.66675 17.0833V14.1667H3.33341V16.6667H5.83341V18.3333ZM14.1667 18.3333H17.0834C17.7751 18.3333 18.3334 17.775 18.3334 17.0833V14.1667H16.6667V16.6667H14.1667V18.3333Z" fill="#222222"/>
</g>
<defs>
<clipPath id="clip0_1_149">
<rect width="20" height="20" fill="white"/>
</clipPath>
</defs>
</svg>
